<?xml version="1.0" encoding="UTF-8"?>
<svg version="1.1" xmlns="http://www.w3.org/2000/svg" width="512" height="512">
<path d="M0 0 C2.17002407 2.00309914 3.9561683 3.69881763 5.4375 6.25 C5.4375 7.24 5.4375 8.23 5.4375 9.25 C6.38625 8.92 7.335 8.59 8.3125 8.25 C14.25599487 6.58967147 20.65472437 5.98361219 26.3125 8.8125 C31.76162465 13.06281722 33.33624884 17.53319435 35.046875 23.99609375 C35.30952148 24.98150146 35.57216797 25.96690918 35.84277344 26.98217773 C36.0390332 27.73055908 36.23529297 28.47894043 36.4375 29.25 C37.33368388 29.25219984 37.33368388 29.25219984 38.24797249 29.25444412 C52.79589583 29.29152101 67.34361609 29.35054736 81.89134407 29.43390274 C88.92658996 29.47368575 95.96172412 29.50608189 102.99707031 29.52099609 C109.78586505 29.53540849 116.57430095 29.57052806 123.36294174 29.61830902 C125.95366278 29.63315277 128.54443326 29.64104272 131.13519669 29.64188385 C134.76254501 29.64424611 138.38893061 29.67126864 142.01611328 29.70410156 C143.08857803 29.6990712 144.16104279 29.69404083 145.26600647 29.68885803 C151.30764413 29.77353198 154.84721552 30.20466687 159.4375 34.25 C162.92771841 38.47500123 163.6324987 40.86503601 163.4375 46.25 C164.37851562 46.20359375 165.31953125 46.1571875 166.2890625 46.109375 C176.46577225 45.81439791 176.46577225 45.81439791 181.0625 47.875 C184.6296362 51.4421362 187.17797712 54.49374967 187.92969131 59.58077049 C187.92600414 60.79938082 187.92231697 62.01799114 187.91851807 63.27352905 C187.92193577 63.95652529 187.92535347 64.63952153 187.92887473 65.34321463 C187.93543418 67.61905559 187.91351171 69.89370234 187.89160156 72.16943359 C187.89047266 73.8057655 187.89110779 75.44209944 187.89337158 77.07843018 C187.89451798 81.51199601 187.87102081 85.94512787 187.84307575 90.37859297 C187.81804968 95.01503765 187.81571915 99.65149258 187.81097412 104.28799438 C187.79854789 113.06396708 187.76573104 121.83974017 187.72557616 130.61562502 C187.68084749 140.6082907 187.65886865 150.60096597 187.63879442 160.59370685 C187.59699812 181.14591592 187.52665289 201.69794538 187.4375 222.25 C188.860625 222.4046875 188.860625 222.4046875 190.3125 222.5625 C193.4375 223.25 193.4375 223.25 195.4375 226.25 C195.65811147 229.24864744 195.76555299 232.15207174 195.7734375 235.15234375 C195.7800943 236.02645401 195.7867511 236.90056427 195.79360962 237.80116272 C195.80373288 239.64956559 195.80842674 241.49800498 195.80810547 243.34643555 C195.81247854 246.17362687 195.84880002 248.99925682 195.88671875 251.82617188 C195.89258701 253.62239049 195.89655634 255.41861653 195.8984375 257.21484375 C195.91999405 258.48218605 195.91999405 258.48218605 195.94198608 259.77513123 C195.91230729 263.5895853 195.87507285 265.61910475 193.65869141 268.81469727 C191.4375 270.25 191.4375 270.25 187.4375 270.25 C187.44118717 271.18244852 187.44487434 272.11489704 187.44867325 273.07560158 C187.53745566 295.75992519 187.6031955 318.44422627 187.64474869 341.1286869 C187.66537741 352.09871214 187.69350404 363.06862263 187.73925781 374.03857422 C187.77911595 383.59954065 187.80493055 393.16042398 187.81385398 402.72147119 C187.81907044 407.784406 187.83133762 412.84710306 187.86042023 417.9099617 C187.88757308 422.67549341 187.89594522 427.44068948 187.88993073 432.2062912 C187.89103102 433.95502674 187.8989857 435.70377353 187.9143219 437.45244217 C187.93424827 439.84172264 187.92943024 442.22973885 187.91851807 444.61904907 C187.93016943 445.30972461 187.9418208 446.00040015 187.95382524 446.71200526 C187.8925256 451.68362267 186.62784598 454.47717329 183.4375 458.25 C178.47994519 462.60196366 174.64428266 462.77659248 168.37176514 462.56037903 C167.01464822 462.5388221 167.01464822 462.5388221 165.63011479 462.51682967 C162.59746662 462.46455531 159.56621668 462.38382538 156.53417969 462.30395508 C154.35380095 462.26190652 152.17337781 462.22210919 149.99291992 462.18438721 C145.27526043 462.1012451 140.55791175 462.00856116 135.84053802 461.91059303 C128.24798999 461.75963387 120.65547398 461.67075331 113.06182861 461.59684753 C111.7683887 461.58410083 110.47494878 461.57135413 109.14231372 461.55822116 C105.82309959 461.52596133 102.50388127 461.49418957 99.18466049 461.46262299 C93.02573805 461.40390617 86.86684793 461.3429706 80.70800781 461.27612305 C80.02355667 461.26872003 79.33910552 461.26131702 78.63391343 461.25368967 C68.50275975 461.14123018 58.37607067 460.94492546 48.24707031 460.70385742 C32.45117004 460.33659578 16.65971799 460.13357104 0.859375 460.14453125 C-1.09755877 460.14540481 -1.09755877 460.14540481 -3.09402657 460.14629602 C-58.75644873 460.29676798 -108.47628568 472.09810138 -161.05751801 489.57989311 C-182.97964873 496.79607457 -182.97964873 496.79607457 -190.80408859 493.2277174 C-197.5380556 489.14972516 -199.16523246 481.743879 -201.00073242 474.55786133 C-201.22650687 473.69648937 -201.45228132 472.83511742 -201.68489742 471.94764328 C-202.43556398 469.07737738 -203.1767113 466.20474018 -203.91796875 463.33203125 C-204.45217542 461.28230553 -204.98701083 459.23274358 -205.52243042 457.18333435 C-206.66995854 452.78608171 -207.81340102 448.38779483 -208.9536438 443.98864746 C-210.7695618 436.98318175 -212.59467008 429.98013193 -214.42163086 422.97753906 C-215.04324546 420.59457849 -215.66484269 418.21161339 -216.28642273 415.8286438 C-216.59561834 414.64328159 -216.90481396 413.45791939 -217.22337914 412.23663712 C-218.16916353 408.60934265 -219.11404994 404.98181537 -220.05867004 401.35421753 C-225.62645878 379.97549336 -231.25282331 358.6125047 -236.89734268 337.25393295 C-239.11181726 328.87290748 -241.32347964 320.49113918 -243.53515625 312.109375 C-243.9024928 310.71736405 -243.9024928 310.71736405 -244.27725029 309.29723167 C-248.19336012 294.45594138 -252.09801839 279.61166173 -255.99609375 264.765625 C-256.4012279 263.22268139 -256.4012279 263.22268139 -256.81454659 261.6485672 C-259.54159231 251.26208256 -262.26744691 240.87528585 -264.99194431 230.48813248 C-270.50986436 209.45226315 -276.04045311 188.41989771 -281.61010742 167.3976593 C-282.46054737 164.18721527 -283.31045285 160.97663026 -284.16015625 157.76599121 C-284.57377914 156.20316784 -284.57377914 156.20316784 -284.99575806 154.60877228 C-285.54556012 152.53139965 -286.09534463 150.45402237 -286.64511108 148.37664032 C-288.23207453 142.3816452 -289.82289591 136.38769065 -291.41663361 130.3944931 C-292.39565949 126.70950157 -293.3712123 123.0235969 -294.34587097 119.33744812 C-294.79486834 117.64238985 -295.24534464 115.94772248 -295.69746399 114.25349426 C-302.43916578 88.98367161 -302.43916578 88.98367161 -299.875 81.3203125 C-296.50776153 76.00889467 -291.79041976 73.61091401 -285.91967773 71.90600586 C-285.24258727 71.70655585 -284.56549681 71.50710585 -283.86788845 71.3016119 C-281.43834165 70.59624781 -279.00185461 69.92065608 -276.5625 69.25 C-275.60016071 68.98386524 -274.63782143 68.71773048 -273.64632034 68.44353104 C-266.68547774 66.52674551 -259.71297509 64.65487678 -252.73719978 62.79327583 C-248.77067267 61.73436118 -244.80632393 60.66744446 -240.84239197 59.59886169 C-240.16788232 59.41706897 -239.49337268 59.23527624 -238.79842335 59.04797465 C-237.42157438 58.67688158 -236.04472914 58.30577465 -234.66788757 57.93465412 C-225.46775513 55.45523904 -216.26618626 52.98142595 -207.05932617 50.52709961 C-200.80669254 48.86023251 -194.55737817 47.18149396 -188.31155866 45.48926681 C-185.02123967 44.59830749 -181.72958059 43.7133261 -178.43373299 42.84301949 C-174.76408065 41.87102894 -171.10057145 40.87845775 -167.43774414 39.88110352 C-165.8268264 39.46238228 -165.8268264 39.46238228 -164.18336487 39.03520203 C-159.121244 37.63475345 -155.10560396 36.14719757 -150.82644653 33.06277466 C-146.5952986 30.02011667 -143.58858136 29.48501825 -138.46411133 29.61450195 C-129.96009836 29.45593726 -122.3135801 27.75556646 -114.13671875 25.41796875 C-112.71087723 25.02418804 -111.28460977 24.63194687 -109.85795593 24.24111938 C-106.85932034 23.41630293 -103.8638421 22.58119323 -100.87054443 21.73721313 C-96.19754052 20.41988993 -91.51757704 19.12859653 -86.83642578 17.84057617 C-74.15247484 14.34493404 -61.48388718 10.79501299 -48.82069397 7.22496033 C-44.77539093 6.08675869 -40.72736612 4.95845611 -36.67886353 3.83169556 C-34.01859059 3.0852531 -31.36417421 2.32028759 -28.7097168 1.5534668 C-8.49533521 -4.17314712 -8.49533521 -4.17314712 0 0 Z " fill="#446AA8" transform="translate(308.5625,9.75)"/>
<path d="M0 0 C15.28159559 -0.0935031 30.56317798 -0.16400845 45.8449955 -0.20724869 C52.9408691 -0.22786092 60.03656481 -0.25595559 67.13232422 -0.30175781 C73.97931988 -0.34593318 80.82613054 -0.36913385 87.67325974 -0.37950897 C90.28636968 -0.38690336 92.89946944 -0.40134268 95.51250076 -0.42292023 C99.1708289 -0.45192977 102.82839187 -0.45595684 106.48681641 -0.45410156 C107.5686319 -0.46848267 108.65044739 -0.48286377 109.76504517 -0.49768066 C115.84208121 -0.46430245 119.3901799 -0.08303482 124 4 C127.49021841 8.22500123 128.1949987 10.61503601 128 16 C128.94101562 15.95359375 129.88203125 15.9071875 130.8515625 15.859375 C141.02827225 15.56439791 141.02827225 15.56439791 145.625 17.625 C149.1921362 21.1921362 151.74047712 24.24374967 152.49219131 29.33077049 C152.48666056 31.15868598 152.48666056 31.15868598 152.48101807 33.02352905 C152.48443577 33.70652529 152.48785347 34.38952153 152.49137473 35.09321463 C152.49793418 37.36905559 152.47601171 39.64370234 152.45410156 41.91943359 C152.45297266 43.5557655 152.45360779 45.19209944 152.45587158 46.82843018 C152.45701798 51.26199601 152.43352081 55.69512787 152.40557575 60.12859297 C152.38054968 64.76503765 152.37821915 69.40149258 152.37347412 74.03799438 C152.36104789 82.81396708 152.32823104 91.58974017 152.28807616 100.36562502 C152.24334749 110.3582907 152.22136865 120.35096597 152.20129442 130.34370685 C152.15949812 150.89591592 152.08915289 171.44794538 152 192 C152.94875 192.103125 153.8975 192.20625 154.875 192.3125 C158 193 158 193 160 196 C160.22061147 198.99864744 160.32805299 201.90207174 160.3359375 204.90234375 C160.3425943 205.77645401 160.3492511 206.65056427 160.35610962 207.55116272 C160.36623288 209.39956559 160.37092674 211.24800498 160.37060547 213.09643555 C160.37497854 215.92362687 160.41130002 218.74925682 160.44921875 221.57617188 C160.45508701 223.37239049 160.45905634 225.16861653 160.4609375 226.96484375 C160.47530853 227.80973862 160.48967957 228.65463348 160.50448608 229.52513123 C160.47480729 233.3395853 160.43757285 235.36910475 158.22119141 238.56469727 C156 240 156 240 152 240 C152.00368717 240.93244852 152.00737434 241.86489704 152.01117325 242.82560158 C152.09995566 265.50992519 152.1656955 288.19422627 152.20724869 310.8786869 C152.22787741 321.84871214 152.25600404 332.81862263 152.30175781 343.78857422 C152.34161595 353.34954065 152.36743055 362.91042398 152.37635398 372.47147119 C152.38157044 377.534406 152.39383762 382.59710306 152.42292023 387.6599617 C152.45007308 392.42549341 152.45844522 397.19068948 152.45243073 401.9562912 C152.45353102 403.70502674 152.4614857 405.45377353 152.4768219 407.20244217 C152.49674827 409.59172264 152.49193024 411.97973885 152.48101807 414.36904907 C152.49266943 415.05972461 152.5043208 415.75040015 152.51632524 416.46200526 C152.4550256 421.43362267 151.19034598 424.22717329 148 428 C142.93419562 432.49928974 138.69263175 432.56372637 132.24307251 432.48101807 C131.2660605 432.48443577 130.28904849 432.48785347 129.28243005 432.49137473 C126.01171781 432.49795839 122.74182792 432.47596883 119.47119141 432.45410156 C117.12550882 432.45297319 114.77982483 432.45360674 112.43414307 432.45587158 C106.06680921 432.45702006 99.69977626 432.43348867 93.33251238 432.40557575 C87.35228235 432.38311656 81.37205198 432.37908327 75.39178781 432.37496826 C63.54873277 432.36621934 51.7057881 432.33961477 39.86279297 432.30175781 C28.36019441 432.26502725 16.85762585 432.23672063 5.35498047 432.21972656 C4.64565186 432.21867567 3.93632326 432.21762477 3.20549984 432.21654204 C-0.35308512 432.21132179 -3.9116703 432.20626698 -7.47025561 432.20129442 C-36.98024163 432.15984496 -66.49011887 432.08910965 -96 432 C-93.03134554 430.47352135 -90.24620438 429.40961147 -87.01956177 428.53359985 C-86.01618271 428.25896408 -85.01280365 427.98432831 -83.97901917 427.70137024 C-82.88395554 427.4062706 -81.78889191 427.11117096 -80.66064453 426.80712891 C-79.50236649 426.4913942 -78.34408844 426.17565948 -77.15071106 425.85035706 C-73.97529741 424.98562803 -70.79890812 424.12465979 -67.62204599 423.26527834 C-64.28451861 422.36142322 -60.94834274 421.45260737 -57.61203003 420.54428101 C-51.27965723 418.82103596 -44.94616118 417.10195881 -38.61221588 415.38450372 C-29.36328355 412.8764731 -20.11591351 410.36269421 -10.86869621 407.84834862 C-10.18583302 407.66267881 -9.50296982 407.477009 -8.7994138 407.28571284 C-7.43545463 406.91485303 -6.0714984 406.54398245 -4.70754516 406.17310083 C-0.11612546 404.92479802 4.47588231 403.67867843 9.06808472 402.43325806 C11.50098957 401.77284828 13.93386229 401.1123201 16.36669922 400.45166016 C17.50482496 400.14287241 18.64295071 399.83408466 19.81556511 399.51593971 C26.77322146 397.6228836 33.70924042 395.67462488 40.61819458 393.60995483 C43 393 43 393 46 393 C45.67128906 391.78014404 45.34257812 390.56028809 45.00390625 389.3034668 C36.13076123 356.35385745 27.38426537 323.37155346 18.6875 290.375 C18.30679352 288.93061869 18.30679352 288.93061869 17.918396 287.45705795 C15.69722268 279.02966048 13.47612486 270.60224346 11.25875854 262.17384338 C9.10415514 253.98455525 6.94755106 245.79583545 4.77825069 237.61042595 C3.83172764 234.03830064 2.88694885 230.4657151 1.94233131 226.89308548 C1.49715293 225.2114104 1.05109975 223.52996663 0.6041317 221.84876633 C-0.00723433 219.54900283 -0.61564453 217.24847671 -1.22338867 214.94775391 C-1.40497969 214.26791065 -1.5865707 213.5880674 -1.77366447 212.88762283 C-3 208.22779129 -3 208.22779129 -3 206 C-3.81082031 206.25394531 -4.62164062 206.50789062 -5.45703125 206.76953125 C-8.96712287 207.86056089 -12.48342551 208.93007166 -16 210 C-16.96550781 210.30808594 -17.93101562 210.61617187 -18.92578125 210.93359375 C-26.711417 213.28843872 -34.71789365 214.84654909 -42.375 211.3125 C-48.39140709 207.81316118 -53.52035866 202.43892402 -55.75 195.75 C-55.8325 194.8425 -55.915 193.935 -56 193 C-56.07476562 192.27941406 -56.14953125 191.55882812 -56.2265625 190.81640625 C-56.63805493 183.87517876 -55.0456334 178.67172334 -51 173 C-42.89905685 164.79542005 -30.87903219 162.4690891 -20 160 C-18.68 160 -17.36 160 -16 160 C-17.51759445 154.02628928 -19.03745213 148.05315951 -20.55895996 142.08044434 C-21.10228481 139.94623833 -21.64501101 137.81187983 -22.18713379 135.67736816 C-25.06023663 124.3663753 -27.95643772 113.06485334 -31.0234375 101.8046875 C-31.4891629 100.08351445 -31.9548222 98.36232351 -32.42041016 96.64111328 C-33.28284423 93.45546752 -34.1626982 90.27533304 -35.05224609 87.09716797 C-40.14414583 68.53569311 -40.14414583 68.53569311 -36.375 60.5625 C-31.87384768 55.70599355 -27.14854906 53.46134444 -20.8125 51.75 C-19.60207031 51.41484375 -18.39164062 51.0796875 -17.14453125 50.734375 C-14 50 -14 50 -11 50 C-10.698022 51.14782455 -10.39604401 52.29564911 -10.08491516 53.47825623 C-7.89303395 61.80890959 -5.70021297 70.13931328 -3.50463867 78.46899414 C-1.45942258 86.22845053 0.58347854 93.98851407 2.62483692 101.74898624 C3.84941708 106.40404722 5.07495612 111.05885179 6.30249023 115.71313477 C7.50342165 120.26670141 8.7019858 124.82088497 9.89887047 129.37551689 C10.35295146 131.10177468 10.80789353 132.8278062 11.26371193 134.55360603 C11.89528081 136.94538496 12.52381728 139.33794084 13.15161133 141.73071289 C13.43437675 142.79724091 13.43437675 142.79724091 13.72285461 143.88531494 C15 148.77186839 15 148.77186839 15 151 C15.88522339 150.72736328 15.88522339 150.72736328 16.78833008 150.44921875 C19.46174862 149.62849004 22.13707974 148.81417861 24.8125 148 C25.74126953 147.71382812 26.67003906 147.42765625 27.62695312 147.1328125 C28.51962891 146.86210937 29.41230469 146.59140625 30.33203125 146.3125 C31.15421143 146.06113281 31.9763916 145.80976563 32.82348633 145.55078125 C35 145 35 145 38 145 C37.82460693 144.35377686 37.64921387 143.70755371 37.46850586 143.04174805 C33.70693877 129.1664761 30.01390314 115.27591019 26.42016602 101.35620117 C24.62956353 94.4216123 22.81274384 87.49558979 20.95703125 80.578125 C19.16310711 73.87104535 17.40544971 67.15436507 15.64111328 60.43945312 C14.59510519 56.45936444 13.54748409 52.47970044 12.5 48.5 C12.08332532 46.91666878 11.66665866 45.33333544 11.25 43.75 C10.940625 42.574375 10.940625 42.574375 10.625 41.375 C10 39 9.375 36.625 8.75 34.25 C8.54334717 33.4647998 8.33669434 32.67959961 8.1237793 31.87060547 C7.71102111 30.3019628 7.29842102 28.73327853 6.88598633 27.16455078 C5.78587528 22.98107897 4.68228962 18.79855865 3.57421875 14.6171875 C3.3421875 13.73998047 3.11015625 12.86277344 2.87109375 11.95898438 C2.42287292 10.26470964 1.97368801 8.5706896 1.5234375 6.87695312 C0 1.1124622 0 1.1124622 0 0 Z " fill="#DC923C" transform="translate(344,40)"/>
<path d="M0 0 C0.29132812 1.21171875 0.58265625 2.4234375 0.8828125 3.671875 C3.21506639 13.25111996 5.74580611 22.7268063 8.62963867 32.15454102 C11.62882861 41.98600881 14.35930645 51.89083891 17.10888672 61.79443359 C18.56481855 67.03179934 20.03293133 72.26574522 21.5 77.5 C22.08339373 79.58331642 22.66672701 81.66664977 23.25 83.75 C23.53875 84.78125 23.8275 85.8125 24.125 86.875 C33.75 121.25 33.75 121.25 34.62548828 124.37695312 C35.20704903 126.45381664 35.78875404 128.53063977 36.37060547 130.60742188 C37.85726348 135.9144162 39.34116974 141.22215576 40.8203125 146.53125 C42.27920347 151.76549299 43.74582315 156.99750372 45.21972656 162.22753906 C45.70822247 163.96325855 46.19485225 165.69950554 46.67871094 167.43652344 C55.47272803 198.9495613 69.01274591 228.37582655 91 253 C91.43940918 253.49290527 91.87881836 253.98581055 92.33154297 254.49365234 C95.50682941 258.04159925 98.73708101 261.53252493 102 265 C102.61617187 265.65871094 103.23234375 266.31742187 103.8671875 266.99609375 C108.83917213 272.14649888 114.37286409 276.58877788 120 281 C120.52529297 281.41765625 121.05058594 281.8353125 121.59179688 282.265625 C146.99829372 302.32497566 177.90651172 316.39110467 209.75 322.1875 C210.60464844 322.35185547 211.45929688 322.51621094 212.33984375 322.68554688 C252.3335544 330.15789675 294.35471637 324.37634223 332.31298828 310.75195312 C335.01316746 309.99631512 337.21252391 309.8558529 340 310 C341.57126177 315.92528282 343.13771797 321.85180701 344.69970703 327.77954102 C345.2319108 329.79649263 345.76543306 331.81309682 346.30029297 333.8293457 C347.06823934 336.72517314 347.83145705 339.62221122 348.59375 342.51953125 C348.83436157 343.42274612 349.07497314 344.325961 349.32287598 345.25654602 C349.54310425 346.09719101 349.76333252 346.937836 349.99023438 347.80395508 C350.18564819 348.54341873 350.38106201 349.28288239 350.58239746 350.04475403 C351 352 351 352 351 355 C329.53804537 361.12030797 308.04358789 367.11197892 286.50390625 372.953125 C285.40974773 373.24989639 284.31558922 373.54666779 283.18827438 373.85243225 C274.16694924 376.29856389 265.14437467 378.74007399 256.12158203 381.18078613 C249.32488081 383.01944328 242.52870336 384.86001402 235.73319817 386.70308685 C232.63020607 387.54390166 229.52650137 388.38204437 226.42274475 389.22003174 C215.54154692 392.16609536 204.70164967 395.22801414 193.88557148 398.40485096 C177.496082 403.21301094 161.01465897 407.69618339 144.54199219 412.20922852 C140.32357855 413.36589561 136.10765271 414.53107839 131.89355469 415.70336914 C126.73427967 417.13847974 121.57106557 418.55848378 116.40474701 419.96801949 C114.45944744 420.50141371 112.51555599 421.03997422 110.5732193 421.58405876 C86.26587273 428.38293511 86.26587273 428.38293511 78.75372314 424.98350525 C72.03130888 420.88057796 70.39954476 413.50279434 68.56176758 406.30786133 C68.33599313 405.44648937 68.11021868 404.58511742 67.87760258 403.69764328 C67.12693602 400.82737738 66.3857887 397.95474018 65.64453125 395.08203125 C65.11032458 393.03230553 64.57548917 390.98274358 64.04006958 388.93333435 C62.89254146 384.53608171 61.74909898 380.13779483 60.6088562 375.73864746 C58.7929382 368.73318175 56.96782992 361.73013193 55.14086914 354.72753906 C54.51925454 352.34457849 53.89765731 349.96161339 53.27607727 347.5786438 C52.96688166 346.39328159 52.65768604 345.20791939 52.33912086 343.98663712 C51.39333647 340.35934265 50.44845006 336.73181537 49.50382996 333.10421753 C43.93604122 311.72549336 38.30967669 290.3625047 32.66515732 269.00393295 C30.45068274 260.62290748 28.23902036 252.24113918 26.02734375 243.859375 C25.6600072 242.46736405 25.6600072 242.46736405 25.28524971 241.04723167 C21.36913988 226.20594138 17.46448161 211.36166173 13.56640625 196.515625 C13.29631681 195.48699593 13.02622738 194.45836685 12.74795341 193.3985672 C10.02090769 183.01208256 7.29505309 172.62528585 4.57055569 162.23813248 C-0.94736436 141.20226315 -6.47795311 120.16989771 -12.04760742 99.1476593 C-12.89804737 95.93721527 -13.74795285 92.72663026 -14.59765625 89.51599121 C-15.01127914 87.95316784 -15.01127914 87.95316784 -15.43325806 86.35877228 C-15.98306012 84.28139965 -16.53284463 82.20402237 -17.08261108 80.12664032 C-18.66957453 74.1316452 -20.26039591 68.13769065 -21.85413361 62.1444931 C-22.83315949 58.45950157 -23.8087123 54.7735969 -24.78337097 51.08744812 C-25.23236834 49.39238985 -25.68284464 47.69772248 -26.13496399 46.00349426 C-32.87666578 20.73367161 -32.87666578 20.73367161 -30.3125 13.0703125 C-26.55242374 7.13923983 -21.34114073 5.03748603 -14.875 3.25 C-13.82119141 2.93869141 -13.82119141 2.93869141 -12.74609375 2.62109375 C-10.83625829 2.06150113 -8.91839811 1.52949417 -7 1 C-6.23945312 0.78859375 -5.47890625 0.5771875 -4.6953125 0.359375 C-3 0 -3 0 0 0 Z " fill="#365587" transform="translate(39,78)"/>
<path d="M0 0 C14 0 14 0 17.625 1.625 C21.1921362 5.1921362 23.74047712 8.24374967 24.49219131 13.33077049 C24.48666056 15.15868598 24.48666056 15.15868598 24.48101807 17.02352905 C24.48443577 17.70652529 24.48785347 18.38952153 24.49137473 19.09321463 C24.49793418 21.36905559 24.47601171 23.64370234 24.45410156 25.91943359 C24.45297266 27.5557655 24.45360779 29.19209944 24.45587158 30.82843018 C24.45701798 35.26199601 24.43352081 39.69512787 24.40557575 44.12859297 C24.38054968 48.76503765 24.37821915 53.40149258 24.37347412 58.03799438 C24.36104789 66.81396708 24.32823104 75.58974017 24.28807616 84.36562502 C24.24334749 94.3582907 24.22136865 104.35096597 24.20129442 114.34370685 C24.15949812 134.89591592 24.08915289 155.44794538 24 176 C24.94875 176.103125 25.8975 176.20625 26.875 176.3125 C30 177 30 177 32 180 C32.22061147 182.99864744 32.32805299 185.90207174 32.3359375 188.90234375 C32.3425943 189.77645401 32.3492511 190.65056427 32.35610962 191.55116272 C32.36623288 193.39956559 32.37092674 195.24800498 32.37060547 197.09643555 C32.37497854 199.92362687 32.41130002 202.74925682 32.44921875 205.57617188 C32.45508701 207.37239049 32.45905634 209.16861653 32.4609375 210.96484375 C32.47530853 211.80973862 32.48967957 212.65463348 32.50448608 213.52513123 C32.47480729 217.3395853 32.43757285 219.36910475 30.22119141 222.56469727 C28 224 28 224 24 224 C24.00368717 224.93244852 24.00737434 225.86489704 24.01117325 226.82560158 C24.09995566 249.50992519 24.1656955 272.19422627 24.20724869 294.8786869 C24.22787741 305.84871214 24.25600404 316.81862263 24.30175781 327.78857422 C24.34161595 337.34954065 24.36743055 346.91042398 24.37635398 356.47147119 C24.38157044 361.534406 24.39383762 366.59710306 24.42292023 371.6599617 C24.45007308 376.42549341 24.45844522 381.19068948 24.45243073 385.9562912 C24.45353102 387.70502674 24.4614857 389.45377353 24.4768219 391.20244217 C24.49674827 393.59172264 24.49193024 395.97973885 24.48101807 398.36904907 C24.49266943 399.05972461 24.5043208 399.75040015 24.51632524 400.46200526 C24.4550256 405.43362267 23.19034598 408.22717329 20 412 C14.93419562 416.49928974 10.69263175 416.56372637 4.24307251 416.48101807 C3.2660605 416.48443577 2.28904849 416.48785347 1.28243005 416.49137473 C-1.98828219 416.49795839 -5.25817208 416.47596883 -8.52880859 416.45410156 C-10.87449118 416.45297319 -13.22017517 416.45360674 -15.56585693 416.45587158 C-21.93319079 416.45702006 -28.30022374 416.43348867 -34.66748762 416.40557575 C-40.64771765 416.38311656 -46.62794802 416.37908327 -52.60821219 416.37496826 C-64.45126723 416.36621934 -76.2942119 416.33961477 -88.13720703 416.30175781 C-99.63980559 416.26502725 -111.14237415 416.23672063 -122.64501953 416.21972656 C-123.35434814 416.21867567 -124.06367674 416.21762477 -124.79450016 416.21654204 C-128.35308512 416.21132179 -131.9116703 416.20626698 -135.47025561 416.20129442 C-164.98024163 416.15984496 -194.49011887 416.08910965 -224 416 C-221.06962586 414.49437761 -218.32500916 413.43121531 -215.14068604 412.56724548 C-214.16331985 412.29983551 -213.18595367 412.03242554 -212.17897034 411.75691223 C-211.11218552 411.46966782 -210.0454007 411.1824234 -208.94628906 410.88647461 C-207.81692429 410.57877136 -206.68755951 410.27106812 -205.52397156 409.95404053 C-202.42172808 409.10965261 -199.31849454 408.26902382 -196.21481419 407.42993617 C-192.93373723 406.54183801 -189.65404018 405.64867337 -186.37420654 404.7559967 C-180.12701461 403.0564574 -173.87872191 401.36100435 -167.62996936 399.66721302 C-155.9021504 396.48812707 -144.17637984 393.30149412 -132.45085144 390.11397171 C-129.78818355 389.39015493 -127.12542807 388.66666173 -124.46260071 387.94343185 C-108.37381172 383.57325924 -92.29248188 379.18133551 -76.26202393 374.60105896 C-56.61740423 369 -56.61740423 369 -52 369 C-54.6633671 358.72830896 -57.3306083 348.45762685 -60 338.1875 C-60.30878963 336.99936895 -60.30878963 336.99936895 -60.62381744 335.78723526 C-66.18827485 314.37949631 -71.78559413 292.98063885 -77.4296875 271.59375 C-77.69831856 270.5757815 -77.96694962 269.557813 -78.24372101 268.50899696 C-80.90020704 258.44367879 -83.55929533 248.37905157 -86.22239494 238.31548119 C-87.22268001 234.53469535 -88.22197477 230.75364814 -89.22113419 226.9725647 C-89.89964873 224.4065689 -90.57965194 221.84097103 -91.25973511 219.27539062 C-92.51823049 214.51995818 -93.76442049 209.76143708 -95 205 C-95.23240639 204.10517033 -95.46481277 203.21034065 -95.70426178 202.28839493 C-96.41442269 199.54181236 -97.11686357 196.79336956 -97.81689453 194.04418945 C-98.03584822 193.19817515 -98.2548019 192.35216085 -98.48039055 191.48050976 C-98.67974771 190.69076921 -98.87910488 189.90102865 -99.08450317 189.08735657 C-99.26170458 188.39320806 -99.43890598 187.69905954 -99.62147713 186.98387623 C-100 185 -100 185 -100 181 C-96.91882573 180.15854044 -93.83474379 179.32826938 -90.75 178.5 C-89.87730469 178.26152344 -89.00460937 178.02304688 -88.10546875 177.77734375 C-86.83896484 177.43896484 -86.83896484 177.43896484 -85.546875 177.09375 C-84.77182617 176.88427734 -83.99677734 176.67480469 -83.19824219 176.45898438 C-81 176 -81 176 -77 176 C-76.01 178.31 -75.02 180.62 -74 183 C-73.38511719 182.57847656 -72.77023437 182.15695313 -72.13671875 181.72265625 C-71.32847656 181.17480469 -70.52023437 180.62695312 -69.6875 180.0625 C-68.88699219 179.51722656 -68.08648437 178.97195312 -67.26171875 178.41015625 C-48.22398983 166.54034599 -22.43496196 176 0 176 C0 117.92 0 59.84 0 0 Z " fill="#984D25" transform="translate(472,56)"/>
<path d="M0 0 C0.301978 1.14782455 0.60395599 2.29564911 0.91508484 3.47825623 C3.10696605 11.80890959 5.29978703 20.13931328 7.49536133 28.46899414 C9.54057742 36.22845053 11.58347854 43.98851407 13.62483692 51.74898624 C14.84941708 56.40404722 16.07495612 61.05885179 17.30249023 65.71313477 C18.50342165 70.26670141 19.7019858 74.82088497 20.89887047 79.37551689 C21.35295146 81.10177468 21.80789353 82.8278062 22.26371193 84.55360603 C22.89528081 86.94538496 23.52381728 89.33794084 24.15161133 91.73071289 C24.34012161 92.44173157 24.5286319 93.15275024 24.72285461 93.88531494 C26 98.77186839 26 98.77186839 26 101 C26.55872803 100.81824219 27.11745605 100.63648438 27.69311523 100.44921875 C30.27043934 99.61928262 32.8537182 98.80959712 35.4375 98 C36.31599609 97.71382813 37.19449219 97.42765625 38.09960938 97.1328125 C43.70259879 95.39609253 49.12123349 93.95953053 55 95 C58.52406871 97.06524157 59.29297309 99.53773753 60.34375 103.30859375 C60.74274965 105.01511024 61.12752382 106.72499868 61.5 108.4375 C61.91608544 110.24162303 62.33536364 112.04501265 62.7578125 113.84765625 C62.9630957 114.72695801 63.16837891 115.60625977 63.37988281 116.51220703 C64.4619125 120.85310568 65.90923377 125.0559216 67.3984375 129.2734375 C68.12367757 132.56056457 67.90017362 134.76472254 67 138 C64.77066991 140.80632295 62.66105597 141.64803644 59.25390625 142.60546875 C58.33416016 142.86650391 57.41441406 143.12753906 56.46679688 143.39648438 C55.50837891 143.65751953 54.54996094 143.91855469 53.5625 144.1875 C52.60794922 144.46013672 51.65339844 144.73277344 50.66992188 145.01367188 C46.57694866 146.15649645 43.28562083 147 39 147 C45.12518599 171.85103339 51.52860293 196.62158849 58.08251953 221.36276245 C59.65831202 227.31143395 61.22981498 233.26123407 62.80078125 239.21118164 C66.91581124 254.79350712 71.03518368 270.37467496 75.17210197 285.95120525 C76.79505798 292.06210161 78.41418709 298.17400477 80.03192139 304.2862854 C80.97929885 307.85942336 81.93217177 311.43106578 82.88525391 315.00268555 C83.44463071 317.11499357 84.00373258 319.22737444 84.5625 321.33984375 C84.9403212 322.74553619 84.9403212 322.74553619 85.32577515 324.17962646 C85.54955841 325.03034729 85.77334167 325.88106812 86.00390625 326.75756836 C86.29503296 327.85143105 86.29503296 327.85143105 86.59204102 328.96739197 C87 331 87 331 87 335 C72.645 338.96 72.645 338.96 58 343 C55.73895414 339.6084312 54.90554898 336.37933023 53.92578125 332.48828125 C53.62605911 331.32882744 53.62605911 331.32882744 53.32028198 330.14595032 C52.8809225 328.44461526 52.44407234 326.74263076 52.0093689 325.0401001 C50.78190441 320.23570681 49.53429129 315.43653254 48.2890625 310.63671875 C48.02266464 309.60808716 47.75626678 308.57945557 47.48179626 307.51965332 C44.74885293 296.98728007 41.92092128 286.48106053 39.08972168 275.97476196 C32.23218895 250.51416529 25.50907503 225.01873654 18.82031631 199.51335907 C18.06276391 196.62600589 17.30426114 193.73890388 16.54550171 190.85186768 C15.34696277 186.29084723 14.15098925 181.72916183 12.95706558 177.16693115 C12.51143038 175.46548348 12.06498443 173.76424794 11.61770248 172.06323242 C11.00331905 169.72585882 10.39199575 167.38770641 9.78149414 165.04931641 C9.59930926 164.35889566 9.41712439 163.66847492 9.22941875 162.95713234 C8 158.22843911 8 158.22843911 8 156 C7.18917969 156.25394531 6.37835938 156.50789062 5.54296875 156.76953125 C2.03287713 157.86056089 -1.48342551 158.93007166 -5 160 C-5.96550781 160.30808594 -6.93101562 160.61617187 -7.92578125 160.93359375 C-15.711417 163.28843872 -23.71789365 164.84654909 -31.375 161.3125 C-37.39140709 157.81316118 -42.52035866 152.43892402 -44.75 145.75 C-44.8325 144.8425 -44.915 143.935 -45 143 C-45.11214844 141.91912109 -45.11214844 141.91912109 -45.2265625 140.81640625 C-45.63805493 133.87517876 -44.0456334 128.67172334 -40 123 C-31.89905685 114.79542005 -19.87903219 112.4690891 -9 110 C-7.68 110 -6.36 110 -5 110 C-6.51759445 104.02628928 -8.03745213 98.05315951 -9.55895996 92.08044434 C-10.10228481 89.94623833 -10.64501101 87.81187983 -11.18713379 85.67736816 C-14.06023663 74.3663753 -16.95643772 63.06485334 -20.0234375 51.8046875 C-20.4891629 50.08351445 -20.9548222 48.36232351 -21.42041016 46.64111328 C-22.28284423 43.45546752 -23.1626982 40.27533304 -24.05224609 37.09716797 C-29.14414583 18.53569311 -29.14414583 18.53569311 -25.375 10.5625 C-20.87384768 5.70599355 -16.14854906 3.46134444 -9.8125 1.75 C-7.99685547 1.24726562 -7.99685547 1.24726562 -6.14453125 0.734375 C-3 0 -3 0 0 0 Z " fill="#F0A042" transform="translate(333,90)"/>
<path d="M0 0 C14 0 14 0 17.625 1.625 C21.1921362 5.1921362 23.74047712 8.24374967 24.49219131 13.33077049 C24.48666056 15.15868598 24.48666056 15.15868598 24.48101807 17.02352905 C24.48443577 17.70652529 24.48785347 18.38952153 24.49137473 19.09321463 C24.49793418 21.36905559 24.47601171 23.64370234 24.45410156 25.91943359 C24.45297266 27.5557655 24.45360779 29.19209944 24.45587158 30.82843018 C24.45701798 35.26199601 24.43352081 39.69512787 24.40557575 44.12859297 C24.38054968 48.76503765 24.37821915 53.40149258 24.37347412 58.03799438 C24.36104789 66.81396708 24.32823104 75.58974017 24.28807616 84.36562502 C24.24334749 94.3582907 24.22136865 104.35096597 24.20129442 114.34370685 C24.15949812 134.89591592 24.08915289 155.44794538 24 176 C25.423125 176.1546875 25.423125 176.1546875 26.875 176.3125 C30 177 30 177 32 180 C32.48756427 183.77541801 32.41647305 187.57145896 32.4375 191.375 C32.47037109 192.4165625 32.50324219 193.458125 32.53710938 194.53125 C32.54419922 195.53929687 32.55128906 196.54734375 32.55859375 197.5859375 C32.57877563 198.96338135 32.57877563 198.96338135 32.59936523 200.36865234 C31.73526062 204.1622652 29.98826897 205.56132605 27 208 C23.70329285 208.60127258 23.70329285 208.60127258 19.91479492 208.56762695 C18.87494446 208.56872215 18.87494446 208.56872215 17.81408691 208.56983948 C15.53540258 208.56637138 13.25879338 208.52755321 10.98046875 208.48828125 C9.39578874 208.47895021 7.81109427 208.47183547 6.22639465 208.46684265 C2.06511274 208.44779537 -2.09528993 208.3987154 -6.25622559 208.34332275 C-10.50598253 208.29208052 -14.75588222 208.26931807 -19.00585938 208.24414062 C-27.33764208 208.19059333 -35.66871152 208.10530942 -44 208 C-43.27103516 206.85724609 -43.27103516 206.85724609 -42.52734375 205.69140625 C-40.68359003 202.4424387 -40.45168444 200.68154733 -41 197 C-42.5 194.5 -42.5 194.5 -45 193 C-49.64451328 192.30826398 -52.21207852 193.32617307 -56 196 C-56.37497746 191.31278181 -56.48459497 187.95124198 -54.3125 183.6875 C-51.55490871 180.48273175 -48.79783416 177.89891708 -45 176 C-30.15 176 -15.3 176 0 176 C0 117.92 0 59.84 0 0 Z " fill="#AF5729" transform="translate(472,56)"/>
<path d="M0 0 C10.56 0 21.12 0 32 0 C32 63.36 32 126.72 32 192 C21.44 192 10.88 192 0 192 C0 128.64 0 65.28 0 0 Z " fill="#C1CFE8" transform="translate(440,280)"/>
<path d="M0 0 C0.35227661 1.35059258 0.35227661 1.35059258 0.71166992 2.72846985 C3.2935326 12.62632481 5.87712954 22.52372642 8.46160889 32.42089844 C9.48601677 36.34384008 10.51012039 40.26686096 11.53399658 44.18994141 C17.31740103 66.34743197 23.12102248 88.49929291 28.99019623 110.63423729 C29.82917169 113.79869933 30.66752168 116.96332643 31.50567627 120.12800598 C32.05454992 122.2001689 32.60343897 124.27232775 33.15234375 126.34448242 C33.42066387 127.35741899 33.68898399 128.37035555 33.96543503 129.41398716 C35.56165578 135.43758558 37.16277423 141.45985795 38.76723289 147.48126698 C39.76746662 151.23920358 40.7634698 154.99825235 41.75841141 158.75759315 C42.2203216 160.49908233 42.68407223 162.24008459 43.14982224 163.98055077 C43.78746638 166.36404381 44.41863365 168.74916513 45.04833984 171.13476562 C45.23307861 171.81886159 45.41781738 172.50295755 45.6081543 173.2077837 C46.82936949 177.87154425 47.39090372 182.12722979 48 187 C38.43 189.64 28.86 192.28 19 195 C16.73895414 191.6084312 15.90554898 188.37933023 14.92578125 184.48828125 C14.72596649 183.71531204 14.52615173 182.94234283 14.32028198 182.14595032 C13.8809225 180.44461526 13.44407234 178.74263076 13.0093689 177.0401001 C11.78190441 172.23570681 10.53429129 167.43653254 9.2890625 162.63671875 C8.88946571 161.09377136 8.88946571 161.09377136 8.48179626 159.51965332 C5.74885293 148.98728007 2.92092128 138.48106053 0.08972168 127.97476196 C-6.76781105 102.51416529 -13.49092497 77.01873654 -20.17968369 51.51335907 C-20.93723609 48.62600589 -21.69573886 45.73890388 -22.45449829 42.85186768 C-23.65303723 38.29084723 -24.84901075 33.72916183 -26.04293442 29.16693115 C-26.48856962 27.46548348 -26.93501557 25.76424794 -27.38229752 24.06323242 C-27.99668095 21.72585882 -28.60800425 19.38770641 -29.21850586 17.04931641 C-29.49178318 16.01368529 -29.49178318 16.01368529 -29.77058125 14.95713234 C-31 10.22843911 -31 10.22843911 -31 8 C-6.08300395 0 -6.08300395 0 0 0 Z " fill="#C1CEE7" transform="translate(372,238)"/>
<path d="M0 0 C0.33 0 0.66 0 1 0 C1 20.13 1 40.26 1 61 C-62.36 61 -125.72 61 -191 61 C-187.88001404 59.44000702 -185.44100144 58.46268631 -182.14068604 57.56724548 C-181.16331985 57.29983551 -180.18595367 57.03242554 -179.17897034 56.75691223 C-178.11218552 56.46966782 -177.0454007 56.1824234 -175.94628906 55.88647461 C-174.81692429 55.57877136 -173.68755951 55.27106812 -172.52397156 54.95404053 C-169.42172808 54.10965261 -166.31849454 53.26902382 -163.21481419 52.42993617 C-159.93373723 51.54183801 -156.65404018 50.64867337 -153.37420654 49.7559967 C-147.12701461 48.0564574 -140.87872191 46.36100435 -134.62996936 44.66721302 C-122.90239843 41.4881943 -111.17686897 38.30165369 -99.45158958 35.11419487 C-96.78776663 34.3900562 -94.12386302 33.66621538 -91.45989418 32.9426136 C-75.45150772 28.59388199 -59.45001941 24.22514848 -43.49822998 19.67247009 C-34.34584032 17.06421852 -25.14839207 14.65525794 -15.91929626 12.33409119 C-10.79681348 11.03294552 -6.75496763 9.94733277 -3 6 C-1.19020859 2.88337092 -1.19020859 2.88337092 0 0 Z " fill="#DC923C" transform="translate(439,411)"/>
<path d="M0 0 C3.13861536 11.00024325 6.08191817 22.0481957 8.9375 33.125 C9.10965027 33.79256317 9.28180054 34.46012634 9.45916748 35.1479187 C11.72941173 43.96184713 13.9445518 52.78840855 16.125 61.625 C17.89700446 68.79708887 19.79784421 75.91045623 21.875 83 C24.91701126 93.38269353 27.52479248 103.86739434 30.10888672 114.37109375 C32.0205922 122.13515631 34.00906449 129.87230459 36.08496094 137.59375 C36.86108283 140.48287823 37.62540579 143.37444299 38.37890625 146.26953125 C38.57653564 147.02766113 38.77416504 147.78579102 38.9777832 148.56689453 C39.38450351 150.12890431 39.79054027 151.69109216 40.19604492 153.25341797 C41.28753587 157.42292184 42.46240164 161.53012621 43.8125 165.625 C45.41170831 170.94953171 46.23404935 175.91213428 44.12109375 181.19921875 C41.38938163 186.07663214 38.23207685 189.03773188 33 191 C30.34006042 191.46809766 27.68855284 191.71303529 25 192 C24.7607077 191.09436813 24.52141541 190.18873627 24.27487183 189.25566101 C21.91276304 180.31613757 19.55030527 171.3767064 17.18757057 162.43734837 C15.90132331 157.57083619 14.61516825 152.70429968 13.32922363 147.83770752 C7.71451269 126.58952876 2.09494629 105.34267242 -3.54899216 84.10223579 C-4.31384457 81.22356208 -5.0784328 78.34481832 -5.84292603 75.46604919 C-6.34173484 73.58779881 -6.84054465 71.70954868 -7.33935547 69.83129883 C-7.58254076 68.91556941 -7.82572605 67.99983999 -8.07628059 67.0563612 C-9.51105798 61.65443954 -10.94776486 56.25303546 -12.38583946 50.8519907 C-13.28291082 47.48109773 -14.17824533 44.10974513 -15.07314682 40.73827553 C-15.48424142 39.19101323 -15.8960654 37.64394448 -16.30871964 36.0970974 C-23 11.01111597 -23 11.01111597 -23 5 C-19.91882573 4.15854044 -16.83474379 3.32826938 -13.75 2.5 C-12.87730469 2.26152344 -12.00460937 2.02304688 -11.10546875 1.77734375 C-10.26113281 1.55175781 -9.41679687 1.32617188 -8.546875 1.09375 C-7.77182617 0.88427734 -6.99677734 0.67480469 -6.19824219 0.45898438 C-4 0 -4 0 0 0 Z " fill="#254375" transform="translate(395,232)"/>
<path d="M0 0 C5.6482897 4.40566596 7.50038363 9.79338771 8.9375 16.625 C9.26446293 18.11642776 9.59409957 19.6072708 9.92578125 21.09765625 C10.20156006 22.34699951 10.20156006 22.34699951 10.48291016 23.62158203 C11.7754053 29.28988583 13.20921452 34.92398045 14.625 40.5625 C14.93139404 41.78533691 15.23778809 43.00817383 15.5534668 44.26806641 C17.36916718 51.49276608 19.223307 58.70342035 21.16796875 65.89453125 C22.31852196 70.15392618 23.44152474 74.42024362 24.5625 78.6875 C24.77495361 79.49469482 24.98740723 80.30188965 25.20629883 81.13354492 C26.23369196 85.03826079 27.25760027 88.94382375 28.2734375 92.8515625 C30.45400931 101.21812085 32.70664407 109.56101529 35.02392578 117.89086914 C37.98167914 128.52529264 40.88038847 139.16730684 43.5625 149.875 C43.8092749 150.85686279 44.0560498 151.83872559 44.31030273 152.8503418 C45.42707533 157.36235753 46.45612252 161.83224014 47.125 166.4375 C43.66789448 167.44177892 40.20912303 168.4401944 36.75 169.4375 C35.76515625 169.72367188 34.7803125 170.00984375 33.765625 170.3046875 C32.82460938 170.57539063 31.88359375 170.84609375 30.9140625 171.125 C30.04475098 171.37636719 29.17543945 171.62773437 28.27978516 171.88671875 C26.125 172.4375 26.125 172.4375 24.125 172.4375 C19.40289084 156.24350365 15.00706325 139.96700314 10.68383789 123.66308594 C9.93662879 120.84545442 9.18725897 118.02841271 8.43579102 115.21191406 C1.35205629 88.66166221 1.35205629 88.66166221 -1.3515625 76.9765625 C-3.39332357 68.16616753 -5.7125982 59.4375456 -8.08203125 50.7109375 C-8.26859095 50.02371864 -8.45515064 49.33649979 -8.64736366 48.62845612 C-10.18798252 42.95873299 -11.73642238 37.29115081 -13.28588867 31.62384033 C-14.45486762 27.34744447 -15.62085116 23.07025553 -16.7825985 18.79188919 C-17.3225002 16.80845171 -17.86683147 14.82626497 -18.41133118 12.84408569 C-18.89765266 11.05413681 -18.89765266 11.05413681 -19.39379883 9.22802734 C-19.68072098 8.17884125 -19.96764313 7.12965515 -20.26325989 6.04867554 C-20.875 3.4375 -20.875 3.4375 -20.875 0.4375 C-14.12339189 -1.91088543 -6.66565378 -3.33282689 0 0 Z " fill="#375586" transform="translate(334.875,18.5625)"/>
<path d="M0 0 C0 34.32 0 68.64 0 104 C-10.56 104 -21.12 104 -32 104 C-32.09039664 91.97794241 -32.16377134 79.95611085 -32.20724869 67.93379021 C-32.22811644 62.35123942 -32.25641969 56.76893337 -32.30175781 51.18652344 C-32.34524388 45.79838788 -32.36914322 40.41048761 -32.37950897 35.02219009 C-32.38689533 32.96728944 -32.40131919 30.91240155 -32.42292023 28.85760117 C-32.45199056 25.97753906 -32.45595444 23.09844712 -32.45410156 20.21826172 C-32.46848267 19.37021469 -32.48286377 18.52216766 -32.49768066 17.64842224 C-32.46035107 12.28003703 -31.5488869 9.26792419 -28 5 C-18.54384219 -3.33042474 -17.32000472 0 0 0 Z " fill="#C1CEE7" transform="translate(472,128)"/>
<path d="M0 0 C0.301978 1.14782455 0.60395599 2.29564911 0.91508484 3.47825623 C3.10696605 11.80890959 5.29978703 20.13931328 7.49536133 28.46899414 C9.54057742 36.22845053 11.58347854 43.98851407 13.62483692 51.74898624 C14.84941708 56.40404722 16.07495612 61.05885179 17.30249023 65.71313477 C18.50342165 70.26670141 19.7019858 74.82088497 20.89887047 79.37551689 C21.35295146 81.10177468 21.80789353 82.8278062 22.26371193 84.55360603 C22.89528081 86.94538496 23.52381728 89.33794084 24.15161133 91.73071289 C24.34012161 92.44173157 24.5286319 93.15275024 24.72285461 93.88531494 C26 98.77186839 26 98.77186839 26 101 C0.79841897 109 0.79841897 109 -5 109 C-7.88452884 98.24198695 -10.75420158 87.48012987 -13.60533142 76.71321392 C-14.92989544 71.71302516 -16.25940782 66.71426628 -17.60058594 61.71850586 C-18.8963644 56.89110641 -20.17867666 52.06030833 -21.45199585 47.22693825 C-21.93843416 45.38984573 -22.42959147 43.55399562 -22.9256897 41.71948814 C-29.17154047 18.5936433 -29.17154047 18.5936433 -25.375 10.5625 C-20.87384768 5.70599355 -16.14854906 3.46134444 -9.8125 1.75 C-8.60207031 1.41484375 -7.39164062 1.0796875 -6.14453125 0.734375 C-3 0 -3 0 0 0 Z " fill="#C0CEE7" transform="translate(333,90)"/>
<path d="M0 0 C0.9061707 2.44092856 1.59668906 4.74567757 2.22631836 7.26098633 C2.53049305 8.41166391 2.53049305 8.41166391 2.84081268 9.5855875 C3.51931447 12.16472016 4.17942038 14.74821526 4.83984375 17.33203125 C5.31836862 19.16522386 5.79805374 20.99811394 6.27882385 22.83071899 C7.57658086 27.79010694 8.85878819 32.75339695 10.13821411 37.71754074 C11.46870814 42.86942052 12.8128836 48.01772438 14.15625 53.16625977 C15.8042791 59.48586656 17.45086092 65.80583629 19.09103394 72.12748718 C22.46372086 85.12532699 25.8678439 98.11431222 29.31164742 111.09349251 C30.02579523 113.7850319 30.73920675 116.47676536 31.45237732 119.16856384 C34.1335085 129.28802779 34.1335085 129.28802779 36.82150269 139.40567017 C37.85266556 143.28235648 38.87907393 147.16027143 39.90189934 151.0391655 C40.27502576 152.45072394 40.64989483 153.86182307 41.02664375 155.27241898 C41.5372583 157.18488699 42.04127094 159.09911406 42.54492188 161.01342773 C42.82783081 162.08020248 43.11073975 163.14697723 43.40222168 164.24607849 C44 167 44 167 44 171 C42.0636296 171.50435694 40.12585854 172.00333874 38.1875 172.5 C36.56908203 172.91765625 36.56908203 172.91765625 34.91796875 173.34375 C32 174 32 174 29 174 C25.57417022 161.34643336 22.16217267 148.69039338 18.875 136 C16.95545722 128.5930823 14.96584307 121.2113615 12.89404297 113.84570312 C10.91195968 106.76390117 9.07337752 99.64639741 7.23046875 92.52734375 C5.70917206 86.6684011 4.13917619 80.82700698 2.5 75 C0.58357971 68.18743498 -1.22643506 61.3511052 -3 54.5 C-4.7952051 47.56592749 -6.6276849 40.64646937 -8.5625 33.75 C-10.35086051 27.36424088 -12.10475663 20.97033734 -13.8125 14.5625 C-14.03172119 13.75071289 -14.25094238 12.93892578 -14.47680664 12.10253906 C-15.30025292 8.99211109 -16 6.2323996 -16 3 C-13.89936424 2.30178583 -11.79434263 1.61675528 -9.6875 0.9375 C-8.51574219 0.55464844 -7.34398437 0.17179688 -6.13671875 -0.22265625 C-3 -1 -3 -1 0 0 Z " fill="#EBF2F8" transform="translate(376,254)"/>
<path d="M0 0 C0 58.08 0 116.16 0 176 C-5.28 176 -10.56 176 -16 176 C-16.11570501 153.79077826 -16.2049525 131.58162901 -16.25906086 109.37216663 C-16.28485121 99.06009987 -16.32001769 88.74822372 -16.37719727 78.4362793 C-16.4270067 69.44921085 -16.45928496 60.46228045 -16.47044247 51.47507781 C-16.4769654 46.71559577 -16.49231336 41.95650865 -16.52865028 37.19715309 C-16.56257094 32.71801661 -16.57306096 28.23943797 -16.56553841 23.76018524 C-16.56691472 22.11583361 -16.57687091 20.47146345 -16.59602737 18.82722282 C-16.62090594 16.58182738 -16.61492668 14.338538 -16.60127258 12.09309387 C-16.60588155 10.83669003 -16.61049051 9.5802862 -16.61523914 8.28580952 C-16 5 -16 5 -14.14992046 2.05668163 C-11 0 -11 0 0 0 Z " fill="#ECF3F9" transform="translate(472,296)"/>
<path d="M0 0 C10.66224287 -0.62110153 10.66224287 -0.62110153 15.5 1.625 C19.1948837 5.13513952 21.73321553 8.19460887 22.49219131 13.33077049 C22.48850414 14.54938082 22.48481697 15.76799114 22.48101807 17.02352905 C22.48443577 17.70652529 22.48785347 18.38952153 22.49137473 19.09321463 C22.49793418 21.36905559 22.47601171 23.64370234 22.45410156 25.91943359 C22.45297266 27.5557655 22.45360779 29.19209944 22.45587158 30.82843018 C22.45701798 35.26199601 22.43352081 39.69512787 22.40557575 44.12859297 C22.38054968 48.76503765 22.37821915 53.40149258 22.37347412 58.03799438 C22.36104789 66.81396708 22.32823104 75.58974017 22.28807616 84.36562502 C22.24334749 94.3582907 22.22136865 104.35096597 22.20129442 114.34370685 C22.15949811 134.89591893 22.08834598 155.44793985 22 176 C16.72 176 11.44 176 6 176 C5.98786972 172.79654121 5.98786972 172.79654121 5.97549438 169.52836609 C5.89849095 149.44170449 5.81055427 129.35511219 5.71247292 109.26854229 C5.66230793 98.94084346 5.61586551 88.61315272 5.578125 78.28540039 C5.54522876 69.28585701 5.50541076 60.28637573 5.45720994 51.28690082 C5.43192135 46.51983416 5.41014708 41.75280883 5.39665604 36.98569298 C5.38385705 32.50171217 5.36182619 28.0178729 5.33261681 23.53396988 C5.32352406 21.88559941 5.31784686 20.23720613 5.31578636 18.58881187 C5.31247575 16.34324081 5.29703145 14.09807399 5.2784729 11.85258484 C5.27294214 10.59433742 5.26741138 9.33608999 5.26171303 8.03971386 C5.2305136 4.82438173 5.2305136 4.82438173 3 2 C2.01 1.34 1.02 0.68 0 0 Z " fill="#C46431" transform="translate(474,56)"/>
<path d="M0 0 C1.46373047 0.06767578 1.46373047 0.06767578 2.95703125 0.13671875 C3.69308594 0.19472656 4.42914063 0.25273437 5.1875 0.3125 C5.2809387 21.85254531 5.35147697 43.3925572 5.39474869 64.93276405 C5.41537448 74.93424886 5.44349545 84.93560774 5.48925781 94.93701172 C5.529125 103.65417482 5.55493269 112.37124673 5.56385398 121.08849847 C5.56906892 125.70431264 5.58132631 130.31986591 5.61042023 134.93559647 C5.63758746 139.28089951 5.64594237 143.62583439 5.63993073 147.97121429 C5.64103038 149.56514614 5.64897664 151.1590904 5.6643219 152.75294876 C5.68427132 154.93207302 5.67942253 157.1098136 5.66851807 159.28897095 C5.67220524 160.50758127 5.67589241 161.7261916 5.67969131 162.98172951 C4.92071553 168.11789113 2.3823837 171.17736048 -1.3125 174.6875 C-6.43399751 177.06533813 -11.25611725 176.63617278 -16.8125 176.3125 C-16.173125 175.879375 -15.53375 175.44625 -14.875 175 C-12.54503997 173.40010823 -12.54503997 173.40010823 -11.8125 170.3125 C-11.71912796 168.11704027 -11.68785165 165.91878836 -11.68792725 163.72134399 C-11.6865171 163.04852241 -11.68510695 162.37570082 -11.68365407 161.68249071 C-11.679998 159.42323462 -11.68333891 157.16404117 -11.68652344 154.90478516 C-11.6851288 153.28685965 -11.68322957 151.66893451 -11.68086243 150.05101013 C-11.67636363 146.56427339 -11.6745093 143.07754843 -11.67440033 139.59080887 C-11.67326088 134.07795472 -11.66042945 128.56516767 -11.64483643 123.05233765 C-11.64226357 122.12230034 -11.63969072 121.19226302 -11.6370399 120.23404276 C-11.63177332 118.33217234 -11.62648784 116.43030197 -11.62118387 114.52843165 C-11.58605758 101.69244662 -11.55952375 88.85654489 -11.56201172 76.02050781 C-11.56359939 67.36402761 -11.54758684 58.70777597 -11.51130509 50.05136907 C-11.49282918 45.4697225 -11.48351639 40.88845762 -11.49578094 36.30678177 C-11.50720484 31.99739505 -11.49554455 27.68869211 -11.46614647 23.37939644 C-11.45949782 21.79797541 -11.46138657 20.21649194 -11.47244453 18.6350956 C-11.48629501 16.47511877 -11.4694517 14.31745739 -11.44500732 12.15762329 C-11.44354076 10.94936197 -11.4420742 9.74110065 -11.4405632 8.49622536 C-10.17189835 2.0652158 -6.31796597 -0.38060036 0 0 Z " fill="#C46431" transform="translate(490.8125,295.6875)"/>
<path d="M0 0 C0.73476563 -0.02835938 1.46953125 -0.05671875 2.2265625 -0.0859375 C5.47342327 0.61066172 6.40329166 1.6785775 8.375 4.375 C9.59510369 7.64628167 10.39876961 10.97739215 11.1875 14.375 C11.41630859 15.27734375 11.64511719 16.1796875 11.88085938 17.109375 C12.90529388 21.3449574 13.55322943 24.13930635 12.375 28.375 C11.84232513 28.50392639 11.30965027 28.63285278 10.76083374 28.76568604 C5.14570789 30.12534903 -0.46842417 31.48906086 -6.08203125 32.85498047 C-8.16870021 33.36217482 -10.25560876 33.86838463 -12.34277344 34.37353516 C-28.18806274 38.20182113 -28.18806274 38.20182113 -43.859375 42.67773438 C-47.89886975 43.69616631 -51.48426947 43.66056762 -55.625 43.375 C-55.73457031 42.74851563 -55.84414063 42.12203125 -55.95703125 41.4765625 C-56.11558594 40.65929687 -56.27414062 39.84203125 -56.4375 39 C-56.58832031 38.18789062 -56.73914063 37.37578125 -56.89453125 36.5390625 C-57.50044942 34.01679359 -57.50044942 34.01679359 -60.625 32.375 C-62.94887947 31.98112212 -65.28293749 31.64013915 -67.625 31.375 C-67.67910687 29.60450311 -67.71784119 27.83353151 -67.75 26.0625 C-67.77320313 25.07636719 -67.79640625 24.09023437 -67.8203125 23.07421875 C-67.625 20.375 -67.625 20.375 -65.625 17.375 C-63.25610352 16.41113281 -63.25610352 16.41113281 -60.25390625 15.578125 C-59.1345166 15.26246582 -58.01512695 14.94680664 -56.86181641 14.62158203 C-55.04302979 14.12827393 -55.04302979 14.12827393 -53.1875 13.625 C-51.94661621 13.27937012 -50.70573242 12.93374023 -49.42724609 12.57763672 C-39.43033746 9.80309923 -29.39049864 7.18397464 -19.33422852 4.63378906 C-13.19977333 3.07507904 -13.19977333 3.07507904 -7.15625 1.203125 C-4.658647 0.38600797 -2.61904704 0.04627292 0 0 Z " fill="#FEBD4F" transform="translate(383.625,184.625)"/>
<path d="M0 0 C1.37799562 5.16587268 2.75270971 10.33260937 4.125 15.5 C4.33041412 16.27330658 4.53582825 17.04661316 4.74746704 17.84335327 C7.30510639 27.48143771 9.80877547 37.12839029 12.1875 46.8125 C13.93663133 53.92325432 15.81542402 60.97300951 17.875 68 C20.91712321 78.38265572 23.52479405 88.86740074 26.10888672 99.37109375 C28.0205922 107.13515631 30.00906449 114.87230459 32.08496094 122.59375 C32.86108283 125.48287823 33.62540579 128.37444299 34.37890625 131.26953125 C34.57653564 132.02766113 34.77416504 132.78579102 34.9777832 133.56689453 C35.38450351 135.12890431 35.79054027 136.69109216 36.19604492 138.25341797 C37.28753587 142.42292184 38.46240164 146.53012621 39.8125 150.625 C41.43556535 156.02896324 42.25774303 161.01036478 40.015625 166.33984375 C37.76113943 170.29911008 37.76113943 170.29911008 36 172 C34.68 172 33.36 172 32 172 C27.58227333 156.19885211 23.28098071 140.37193648 19.125 124.5 C15.9020051 112.19505654 12.64219378 99.90151357 9.3125 87.625 C5.19672204 72.44088135 1.10027033 57.2516351 -2.97769165 42.05731201 C-3.65451913 39.53665043 -4.33206031 37.01618037 -5.01034546 34.49591064 C-5.96709934 30.94048101 -6.92134374 27.38438657 -7.875 23.828125 C-8.16103592 22.76711578 -8.44707184 21.70610657 -8.74177551 20.61294556 C-10.30617079 14.76699641 -11.73374522 8.91789704 -13 3 C-11.39743892 2.49487756 -9.79288208 1.99608373 -8.1875 1.5 C-7.29417969 1.2215625 -6.40085937 0.943125 -5.48046875 0.65625 C-3 0 -3 0 0 0 Z " fill="#375585" transform="translate(399,247)"/>
<path d="M0 0 C4.00109964 14.37981151 7.97822936 28.76229031 11.71826172 43.21264648 C20.16349302 75.82919594 29.06527369 108.33205345 37.95678711 140.8293457 C38.63587497 143.31367679 39.31279002 145.79860305 39.98730469 148.28417969 C40.69797505 150.89179851 41.41726407 153.49596367 42.14550781 156.09863281 C42.51642574 157.44331809 42.8871984 158.78804345 43.2578125 160.1328125 C43.75885498 161.92936279 43.75885498 161.92936279 44.27001953 163.76220703 C45 167 45 167 45 172 C40.05 172.99 40.05 172.99 35 174 C30.27789084 157.80600365 25.88206325 141.52950314 21.55883789 125.22558594 C20.81162879 122.40795442 20.06225897 119.59091271 19.31079102 116.77441406 C12.22705629 90.22416221 12.22705629 90.22416221 9.5234375 78.5390625 C7.48167643 69.72866753 5.1624018 61.0000456 2.79296875 52.2734375 C2.60640905 51.58621864 2.41984936 50.89899979 2.22763634 50.19095612 C0.68701748 44.52123299 -0.86142238 38.85365081 -2.41088867 33.18634033 C-3.57986762 28.90994447 -4.74585116 24.63275553 -5.9075985 20.35438919 C-6.4475002 18.37095171 -6.99183147 16.38876497 -7.53633118 14.40658569 C-8.02265266 12.61663681 -8.02265266 12.61663681 -8.51879883 10.79052734 C-8.80572098 9.74134125 -9.09264313 8.69215515 -9.38825989 7.61117554 C-10 5 -10 5 -10 2 C-3.375 0 -3.375 0 0 0 Z " fill="#244375" transform="translate(324,17)"/>
<path d="M0 0 C2.80543933 2.80543933 3.27732459 6.07570958 4.24658203 9.81445312 C4.46145264 10.62107895 4.67632324 11.42770477 4.89770508 12.2587738 C5.60774464 14.93121552 6.30789237 17.60614173 7.0078125 20.28125 C7.49767161 22.13462039 7.98806552 23.9878495 8.47897339 25.84094238 C9.50694157 29.72701672 10.53037691 33.61424613 11.55029297 37.50244141 C12.85987841 42.49459985 14.17758689 47.48456641 15.49829292 52.47379303 C16.51099049 56.30096255 17.52093219 60.12885451 18.52987289 63.95701599 C19.01501863 65.79761302 19.50066747 67.63807751 19.98682022 69.47840881 C20.66452825 72.04678548 21.33889412 74.61601502 22.01220703 77.18554688 C22.21478119 77.95132553 22.41735535 78.71710419 22.62606812 79.50608826 C24 84.77071368 24 84.77071368 24 87 C21.89748139 87.67184618 19.79292237 88.33730968 17.6875 89 C16.51574219 89.37125 15.34398437 89.7425 14.13671875 90.125 C11 91 11 91 8 91 C5.06834294 82.01533337 2.64049333 72.93525244 0.28271484 63.78686523 C-1.25223825 57.84000463 -2.83575674 51.91191037 -4.5 46 C-6.47065745 38.9464389 -8.41543317 31.88623269 -10.3125 24.8125 C-10.71275391 23.3594043 -10.71275391 23.3594043 -11.12109375 21.87695312 C-12.47565321 16.77596737 -13.45931914 12.28217009 -13 7 C-10.05398255 2.38884225 -5.01025256 1.41314816 0 0 Z " fill="#EBF2F8" transform="translate(335,104)"/>
<path d="M0 0 C0 29.04 0 58.08 0 88 C-5.28 88 -10.56 88 -16 88 C-16.11297579 77.2645191 -16.20470159 66.52943321 -16.25906086 55.79349232 C-16.28515106 50.80831117 -16.32053868 45.82355792 -16.37719727 40.83862305 C-16.43153748 36.02753687 -16.46142488 31.21686217 -16.47438622 26.40549278 C-16.48362249 24.57023325 -16.50165908 22.73499616 -16.52865028 20.89991188 C-16.56496822 18.32836942 -16.56994434 15.75852538 -16.56762695 13.18676758 C-16.58560333 12.42863266 -16.60357971 11.67049774 -16.62210083 10.88938904 C-16.58669765 7.25678949 -16.05968991 5.09727746 -14.15202332 1.98832703 C-11 0 -11 0 0 0 Z " fill="#ECF3F9" transform="translate(472,144)"/>
<path d="M0 0 C6 2 6 2 8 5 C8.24609566 8.03971386 8.24609566 8.03971386 8.24050903 11.85258484 C8.24221788 12.55343557 8.24392673 13.2542863 8.24568737 13.97637492 C8.24898777 16.33030046 8.23796967 18.68394242 8.22705078 21.0378418 C8.22648679 22.72299187 8.226803 24.40814244 8.22793579 26.09329224 C8.22851076 30.67358988 8.21673315 35.25378325 8.20278788 39.83405662 C8.19030451 44.6186799 8.18911191 49.40330545 8.18673706 54.1879425 C8.18051524 63.25081174 8.16409494 72.31363285 8.14403808 81.37648088 C8.1217009 91.69315516 8.11069114 102.00983171 8.10064721 112.32652414 C8.07972932 133.55104297 8.04453971 154.77551846 8 176 C5.36 176 2.72 176 0 176 C0 117.92 0 59.84 0 0 Z " fill="#994D25" transform="translate(472,56)"/>
<path d="M0 0 C8.58 0 17.16 0 26 0 C26 32.34 26 64.68 26 98 C24.18730095 94.3746019 23.19305519 91.33563098 22.1875 87.4375 C22.01790771 86.78620117 21.84831543 86.13490234 21.67358398 85.46386719 C21.30576829 84.05105639 20.93970388 82.63778875 20.57519531 81.22412109 C19.78994971 78.18779366 18.98908401 75.15566234 18.1887207 72.12329102 C17.55268394 69.71279846 16.91863304 67.3017915 16.28515625 64.890625 C15.02469508 60.09341872 13.76251499 55.29666611 12.5 50.5 C12.08332532 48.91666878 11.66665866 47.33333544 11.25 45.75 C11.04375 44.96625 10.8375 44.1825 10.625 43.375 C10 41 9.375 38.625 8.75 36.25 C8.54334717 35.46496094 8.33669434 34.67992187 8.1237793 33.87109375 C7.71070012 32.30090785 7.29809591 30.73059691 6.88598633 29.16015625 C5.79346102 24.99947374 4.6907643 20.84180643 3.57421875 16.6875 C3.3421875 15.81931641 3.11015625 14.95113281 2.87109375 14.05664062 C2.42489604 12.38786118 1.97580759 10.71985121 1.5234375 9.05273438 C0.69809657 5.95637468 0 3.21960958 0 0 Z " fill="#DB923C" transform="translate(414,304)"/>
<path d="M0 0 C1.70884005 1.62339805 3.37446717 3.29319053 5 5 C5 5.66 5 6.32 5 7 C5.58652344 7.28617188 6.17304688 7.57234375 6.77734375 7.8671875 C9 9 9 9 10.75390625 10.0703125 C18.14024307 14.37767955 25.71919279 13.76419871 33.81640625 11.6875 C35.73595018 11.13943171 37.65140415 10.57683654 39.5625 10 C41.5007722 9.43567682 43.43954956 8.87308487 45.37890625 8.3125 C46.2201001 8.06113281 47.06129395 7.80976563 47.92797852 7.55078125 C50 7 50 7 52 7 C52.51069267 8.5381577 53.00802747 10.08075289 53.5 11.625 C53.7784375 12.48351562 54.056875 13.34203125 54.34375 14.2265625 C55.05611673 17.23716001 55.10848596 19.91719068 55 23 C51.41685685 23.97986353 47.83345277 24.95876946 44.25 25.9375 C43.23421875 26.21529297 42.2184375 26.49308594 41.171875 26.77929688 C40.1921875 27.04677734 39.2125 27.31425781 38.203125 27.58984375 C37.30239258 27.83597412 36.40166016 28.08210449 35.47363281 28.33569336 C27.67284033 30.43063575 19.63697817 31.80062732 12.125 28 C6.70843123 24.52985703 3.41757992 19.89959528 0.625 14.1875 C-0.30187975 9.46041326 -0.15374611 4.80029527 0 0 Z " fill="#375687" transform="translate(289,239)"/>
<path d="M0 0 C15.84 0.495 15.84 0.495 32 1 C32 8.92 32 16.84 32 25 C18.635 25.495 18.635 25.495 5 26 C3.7625 20.9571875 3.7625 20.9571875 2.5 15.8125 C2.23896484 14.76167236 1.97792969 13.71084473 1.70898438 12.62817383 C1.50595703 11.78794678 1.30292969 10.94771973 1.09375 10.08203125 C0.88427734 9.22843018 0.67480469 8.3748291 0.45898438 7.49536133 C0 5 0 5 0 0 Z " fill="#BC721C" transform="translate(408,279)"/>
<path d="M0 0 C0.50636607 1.74816858 1.00484619 3.49862263 1.5 5.25 C1.7784375 6.22453125 2.056875 7.1990625 2.34375 8.203125 C3 11 3 11 3 15 C-3.20131512 17.42379884 -9.46343691 19.52646122 -15.875 21.3125 C-17.10992187 21.65925781 -18.34484375 22.00601562 -19.6171875 22.36328125 C-23 23 -23 23 -28 22 C-28.99 17.38 -29.98 12.76 -31 8 C-6.08300395 0 -6.08300395 0 0 0 Z " fill="#C0CDE5" transform="translate(372,238)"/>
<path d="M0 0 C0.50588147 1.91512272 1.00448391 3.83216922 1.5 5.75 C1.7784375 6.81734375 2.056875 7.8846875 2.34375 8.984375 C3 12 3 12 3 16 C1.44240657 16.53532823 -0.12138045 17.05265378 -1.6875 17.5625 C-2.55761719 17.85253906 -3.42773438 18.14257812 -4.32421875 18.44140625 C-7 19 -7 19 -12 18 C-12.99 13.38 -13.98 8.76 -15 4 C-2.25 0 -2.25 0 0 0 Z " fill="#A9B7D2" transform="translate(356,242)"/>
<path d="M0 0 C4.0743356 0.84881992 5.54405875 2.30225596 8 5.625 C8.625 8.625 8.625 8.625 8 11.625 C5.50915752 14.99496335 4.11411135 16.44310427 -0.0625 17.125 C-3.42877241 16.55201746 -4.79003464 16.2442182 -7 13.625 C-7.96988093 10.89277446 -8.32575603 8.5118724 -8 5.625 C-5.60540961 2.14195943 -4.14822958 0.8642145 0 0 Z " fill="#28262F" transform="translate(424,247.375)"/>
<path d="M0 0 C4.14822958 0.8642145 5.60540961 2.14195943 8 5.625 C8.32575603 8.5118724 7.96988093 10.89277446 7 13.625 C4.79003464 16.2442182 3.42877241 16.55201746 0.0625 17.125 C-4.11411135 16.44310427 -5.50915752 14.99496335 -8 11.625 C-8.625 8.625 -8.625 8.625 -8 5.625 C-5.54405875 2.30225596 -4.0743356 0.84881992 0 0 Z " fill="#2C4672" transform="translate(320,215.375)"/>
<path d="M0 0 C1.05960938 0.00676758 1.05960938 0.00676758 2.140625 0.01367188 C3.88545275 0.02546125 5.630237 0.04339676 7.375 0.0625 C4.55534769 2.88215231 1.26180496 3.32785843 -2.5 4.25 C-3.22058594 4.44013672 -3.94117188 4.63027344 -4.68359375 4.82617188 C-8.39225872 5.75163063 -10.97904127 6.18903757 -14.625 5.0625 C-9.3647515 0.77124464 -6.70972769 -0.08046721 0 0 Z " fill="#D59141" transform="translate(169.625,39.9375)"/>
</svg>
